<?xml version="1.0" encoding="UTF-8" standalone="no"?>

<svg height="200px" viewBox="0 0 38.743122 17.913477" version="1.1" id="svg5" xml:space="preserve" xmlns="http://www.w3.org/2000/svg" xmlns:svg="http://www.w3.org/2000/svg">
	<defs id="defs2">
		<style id="style2656">.cls-1{fill:#130754;}.cls-2{fill:#ffca00;}.cls-3{fill:#e70488;}</style>
	</defs>
	<g id="layer1" transform="translate(-0.61705728,-0.50631563)">
		<path id="rect4109" style="fill:#404040;fill-opacity:1;stroke-width:0.239233" d="M 0.61705729,1.8424479 V 17.626042 a 0.79375,0.79375 45 0 0 0.79375001,0.79375 H 38.566431 a 0.79375,0.79375 135 0 0 0.79375,-0.79375 l 0,-16.312891 A 0.79375,0.79375 45 0 0 38.566431,0.51940104 H 1.4108073 A 0.67460886,0.67460886 146.30343 0 0 0.61705729,1.0486979 Z"/>
		<g id="g595" transform="translate(2.4557078,3.6854181)">
			<g aria-label="Pandas Tutorial" id="text585" style="font-weight:bold;font-size:2.8193px;font-family:Arial;-inkscape-font-specification:'Arial Bold';stroke-width:0.634275">
				<path d="m 16.03845,4.5768928 v 0.7062016 h -0.412983 v -2.004346 h 0.781915 q 0.225764,0 0.396464,0.082597 0.172077,0.082597 0.26431,0.2354006 0.09223,0.1514272 0.09223,0.3455294 0,0.2945948 -0.202362,0.4652946 -0.200986,0.1693232 -0.557528,0.1693232 z m 0,-0.3345165 h 0.368932 q 0.163817,0 0.249167,-0.07709 0.08673,-0.07709 0.08673,-0.2202578 0,-0.1472974 -0.08673,-0.2381537 -0.08673,-0.090856 -0.239531,-0.09361 H 16.03845 Z" style="font-family:Roboto;-inkscape-font-specification:'Roboto Bold';fill:#f9f9f9" id="path5374"/>
				<path d="m 18.265807,5.2830944 q -0.02753,-0.053688 -0.03992,-0.1335313 -0.144545,0.1610635 -0.375815,0.1610635 -0.218881,0 -0.363426,-0.1266482 -0.143167,-0.1266482 -0.143167,-0.3193738 0,-0.2367772 0.174829,-0.3634254 0.176207,-0.1266482 0.50797,-0.1280249 h 0.183089 v -0.08535 q 0,-0.1032458 -0.05369,-0.1651933 -0.05231,-0.061948 -0.16657,-0.061948 -0.100493,0 -0.158311,0.048181 -0.05644,0.048181 -0.05644,0.1321547 h -0.39784 q 0,-0.1294015 0.07984,-0.2395304 0.07984,-0.1101289 0.225764,-0.1720764 0.145921,-0.063324 0.327634,-0.063324 0.275322,0 0.436385,0.1390377 0.162441,0.1376611 0.162441,0.3882044 v 0.6456307 q 0.0014,0.2119981 0.05919,0.3207504 v 0.023402 z m -0.32901,-0.2766989 q 0.0881,0 0.16244,-0.038545 0.07434,-0.039922 0.110129,-0.1059991 V 4.6058016 h -0.148674 q -0.298724,0 -0.317997,0.2064917 l -0.0014,0.023402 q 0,0.074337 0.05231,0.1225184 0.05231,0.048181 0.143167,0.048181 z" style="font-family:Roboto;-inkscape-font-specification:'Roboto Bold';fill:#f9f9f9" id="path5376"/>
				<path d="m 19.28037,3.793601 0.01239,0.1720764 q 0.159687,-0.1996086 0.428126,-0.1996086 0.236778,0 0.352413,0.1390377 0.115635,0.1390377 0.118388,0.4157366 v 0.9622513 h -0.39784 v -0.952615 q 0,-0.1266483 -0.05506,-0.1830893 -0.05506,-0.057818 -0.183089,-0.057818 -0.167947,0 -0.25192,0.1431676 v 1.0503544 h -0.39784 V 3.793601 Z" style="font-family:Roboto;-inkscape-font-specification:'Roboto Bold';fill:#f9f9f9" id="path5378"/>
				<path d="m 20.431217,4.5273348 q 0,-0.3482827 0.155557,-0.5547743 0.156934,-0.2064917 0.428126,-0.2064917 0.217505,0 0.359296,0.1624401 V 3.1686195 h 0.399217 v 2.1144749 h -0.359296 l -0.01927,-0.1583103 q -0.148674,0.1858425 -0.382698,0.1858425 -0.262933,0 -0.42262,-0.2064917 -0.15831,-0.2078683 -0.15831,-0.5768001 z m 0.397841,0.028909 q 0,0.209245 0.07296,0.3207505 0.07296,0.1115055 0.211998,0.1115055 0.184466,0 0.26018,-0.1555571 v -0.587813 q -0.07434,-0.1555571 -0.257427,-0.1555571 -0.287711,0 -0.287711,0.4666712 z" style="font-family:Roboto;-inkscape-font-specification:'Roboto Bold';fill:#f9f9f9" id="path5380"/>
				<path d="m 22.944909,5.2830944 q -0.02753,-0.053688 -0.03992,-0.1335313 -0.144544,0.1610635 -0.375815,0.1610635 -0.218881,0 -0.363426,-0.1266482 -0.143167,-0.1266482 -0.143167,-0.3193738 0,-0.2367772 0.17483,-0.3634254 0.176206,-0.1266482 0.507969,-0.1280249 h 0.183089 v -0.08535 q 0,-0.1032458 -0.05369,-0.1651933 -0.05231,-0.061948 -0.16657,-0.061948 -0.100493,0 -0.158311,0.048181 -0.05644,0.048181 -0.05644,0.1321547 h -0.39784 q 0,-0.1294015 0.07984,-0.2395304 0.07984,-0.1101289 0.225764,-0.1720764 0.145921,-0.063324 0.327634,-0.063324 0.275322,0 0.436386,0.1390377 0.16244,0.1376611 0.16244,0.3882044 v 0.6456307 q 0.0014,0.2119981 0.05919,0.3207504 v 0.023402 z m -0.32901,-0.2766989 q 0.0881,0 0.162441,-0.038545 0.07434,-0.039922 0.110128,-0.1059991 V 4.6058016 h -0.148674 q -0.298724,0 -0.317997,0.2064917 l -0.0014,0.023402 q 0,0.074337 0.05231,0.1225184 0.05231,0.048181 0.143167,0.048181 z" style="font-family:Roboto;-inkscape-font-specification:'Roboto Bold';fill:#f9f9f9" id="path5382"/>
				<path d="m 24.399987,4.8714876 q 0,-0.07296 -0.07296,-0.1142587 -0.07158,-0.042675 -0.231271,-0.075714 -0.531372,-0.1115055 -0.531372,-0.4515285 0,-0.1982321 0.163817,-0.3303867 0.165193,-0.1335313 0.430879,-0.1335313 0.283582,0 0.452906,0.1335313 0.170699,0.1335312 0.170699,0.346906 h -0.39784 q 0,-0.08535 -0.05506,-0.1404144 -0.05506,-0.056441 -0.172076,-0.056441 -0.100493,0 -0.155557,0.045428 -0.05506,0.045428 -0.05506,0.1156353 0,0.066077 0.06195,0.1073757 0.06332,0.039922 0.211998,0.070207 0.148674,0.028909 0.250543,0.066077 0.315244,0.1156354 0.315244,0.4005939 0,0.2037385 -0.174829,0.3303867 -0.17483,0.1252716 -0.451529,0.1252716 -0.187219,0 -0.33314,-0.066077 Q 23.682773,5.1770953 23.600176,5.06146 23.51758,4.944448 23.51758,4.8095401 h 0.377191 q 0.0055,0.1059991 0.07847,0.1624402 0.07296,0.056441 0.195479,0.056441 0.114258,0 0.172076,-0.042675 0.05919,-0.044052 0.05919,-0.1142588 z" style="font-family:Roboto;-inkscape-font-specification:'Roboto Bold';fill:#f9f9f9" id="path5384"/>
				<path d="M 27.197261,3.6132649 H 26.583293 V 5.2830944 H 26.170309 V 3.6132649 H 25.5646 V 3.2787484 h 1.632661 z" style="font-family:Roboto;-inkscape-font-specification:'Roboto Bold';fill:#f9f9f9" id="path5386"/>
				<path d="m 28.209071,5.1316672 q -0.147298,0.1789594 -0.407477,0.1789594 -0.239531,0 -0.366179,-0.1376611 Q 27.310144,5.0353044 27.30739,4.7696184 V 3.793601 h 0.397841 v 0.9622513 q 0,0.2326473 0.211998,0.2326473 0.202362,0 0.278076,-0.1404144 V 3.793601 h 0.399217 v 1.4894934 h -0.374438 z" style="font-family:Roboto;-inkscape-font-specification:'Roboto Bold';fill:#f9f9f9" id="path5388"/>
				<path d="M 29.370931,3.4274224 V 3.793601 h 0.254673 v 0.2918416 h -0.254673 v 0.7433701 q 0,0.082597 0.03166,0.1183885 0.03166,0.035792 0.121142,0.035792 0.06608,0 0.117012,-0.00964 V 5.274831 q -0.117012,0.035792 -0.240907,0.035792 -0.41849,0 -0.42675,-0.4226196 V 4.0854426 H 28.755585 V 3.793601 H 28.97309 V 3.4274224 Z" style="font-family:Roboto;-inkscape-font-specification:'Roboto Bold';fill:#f9f9f9" id="path5390"/>
				<path d="m 29.743993,4.5245816 q 0,-0.2216344 0.08535,-0.3950875 0.08535,-0.173453 0.245037,-0.2684392 0.161064,-0.094986 0.373062,-0.094986 0.301478,0 0.49145,0.1844659 0.191349,0.1844659 0.213375,0.5010865 l 0.0028,0.1018692 q 0,0.3427762 -0.191349,0.5506445 -0.191349,0.2064917 -0.513476,0.2064917 -0.322127,0 -0.514852,-0.2064917 -0.191349,-0.2064917 -0.191349,-0.5616574 z m 0.39784,0.028909 q 0,0.2119982 0.07984,0.3248803 0.07984,0.1115055 0.228517,0.1115055 0.144544,0 0.225764,-0.1101289 0.08122,-0.1115055 0.08122,-0.3551657 0,-0.2078683 -0.08122,-0.3221271 -0.08122,-0.1142587 -0.228517,-0.1142587 -0.145921,0 -0.225764,0.1142587 -0.07984,0.1128822 -0.07984,0.3510359 z" style="font-family:Roboto;-inkscape-font-specification:'Roboto Bold';fill:#f9f9f9" id="path5392"/>
				<path d="m 32.237036,4.1666626 q -0.08122,-0.011013 -0.143168,-0.011013 -0.225764,0 -0.295971,0.1528038 v 0.974641 H 31.400056 V 3.793601 h 0.375815 l 0.01101,0.1775828 q 0.119765,-0.205115 0.331763,-0.205115 0.06608,0 0.123895,0.017896 z" style="font-family:Roboto;-inkscape-font-specification:'Roboto Bold';fill:#f9f9f9" id="path5394"/>
				<path d="M 32.848251,5.2830944 H 32.449033 V 3.793601 h 0.399218 z m -0.42262,-1.8749446 q 0,-0.08948 0.05919,-0.1472974 0.06057,-0.057818 0.163817,-0.057818 0.101869,0 0.16244,0.057818 0.06057,0.057818 0.06057,0.1472974 0,0.090856 -0.06195,0.148674 -0.06057,0.057818 -0.161064,0.057818 -0.100493,0 -0.16244,-0.057818 -0.06057,-0.057818 -0.06057,-0.148674 z" style="font-family:Roboto;-inkscape-font-specification:'Roboto Bold';fill:#f9f9f9" id="path5396"/>
				<path d="m 34.039019,5.2830944 q -0.02753,-0.053688 -0.03992,-0.1335313 -0.144544,0.1610635 -0.375815,0.1610635 -0.218881,0 -0.363425,-0.1266482 -0.143168,-0.1266482 -0.143168,-0.3193738 0,-0.2367772 0.17483,-0.3634254 0.176206,-0.1266482 0.50797,-0.1280249 h 0.183089 v -0.08535 q 0,-0.1032458 -0.05369,-0.1651933 -0.05231,-0.061948 -0.16657,-0.061948 -0.100492,0 -0.15831,0.048181 -0.05644,0.048181 -0.05644,0.1321547 h -0.397841 q 0,-0.1294015 0.07984,-0.2395304 0.07984,-0.1101289 0.225764,-0.1720764 0.145921,-0.063324 0.327633,-0.063324 0.275323,0 0.436386,0.1390377 0.16244,0.1376611 0.16244,0.3882044 v 0.6456307 q 0.0014,0.2119981 0.0592,0.3207504 v 0.023402 z m -0.32901,-0.2766989 q 0.0881,0 0.16244,-0.038545 0.07434,-0.039922 0.110129,-0.1059991 V 4.6058016 h -0.148674 q -0.298725,0 -0.317997,0.2064917 l -0.0014,0.023402 q 0,0.074337 0.05231,0.1225184 0.05231,0.048181 0.143168,0.048181 z" style="font-family:Roboto;-inkscape-font-specification:'Roboto Bold';fill:#f9f9f9" id="path5398"/>
				<path d="M 35.107271,5.2830944 H 34.708053 V 3.1686195 h 0.399218 z" style="font-family:Roboto;-inkscape-font-specification:'Roboto Bold';fill:#f9f9f9" id="path5400"/>
			</g>
			<g aria-label="Persian | " id="text589" style="font-size:3.17467px;fill:#ffca00;stroke-width:0.595249">
				<path d="M 16.124074,8.0266551 V 8.8218727 H 15.659035 V 6.5648808 h 0.880475 q 0.254221,0 0.446438,0.093008 0.193766,0.093008 0.297625,0.2650725 0.103859,0.1705145 0.103859,0.3890831 0,0.3317282 -0.22787,0.5239446 -0.226319,0.1906662 -0.627803,0.1906662 z m 0,-0.376682 h 0.415436 q 0.184465,0 0.280573,-0.086807 0.09766,-0.086807 0.09766,-0.2480211 0,-0.1658641 -0.09766,-0.2681728 -0.09766,-0.1023087 -0.269722,-0.105409 h -0.426287 z" style="font-weight:bold;font-family:Roboto;-inkscape-font-specification:'Roboto Bold'" id="path5414"/>
				<path d="m 18.42912,8.8528753 q -0.368931,0 -0.601451,-0.2263192 Q 17.5967,8.4002369 17.5967,8.0235548 v -0.043404 q 0,-0.2526715 0.09766,-0.4510883 0.09766,-0.199967 0.275923,-0.3069261 0.179816,-0.1085093 0.409235,-0.1085093 0.344129,0 0.540996,0.2170185 0.198417,0.2170184 0.198417,0.6154023 V 8.1289635 H 18.05089 q 0.0217,0.164314 0.130211,0.2635224 0.11006,0.099208 0.277474,0.099208 0.258872,0 0.404584,-0.1875659 l 0.220119,0.2464709 q -0.100759,0.1426122 -0.272823,0.223219 -0.172065,0.079057 -0.381333,0.079057 z m -0.05115,-1.376517 q -0.133311,0 -0.217019,0.089908 -0.08216,0.089908 -0.105408,0.2573219 h 0.623153 v -0.035653 q -0.0031,-0.1488127 -0.08061,-0.2294195 -0.07751,-0.082157 -0.220119,-0.082157 z" style="font-weight:bold;font-family:Roboto;-inkscape-font-specification:'Roboto Bold'" id="path5416"/>
				<path d="m 20.315631,7.5647158 q -0.09146,-0.012401 -0.161214,-0.012401 -0.254222,0 -0.333278,0.1720647 V 8.8218727 H 19.373151 V 7.1446301 h 0.423186 l 0.0124,0.199967 q 0.134861,-0.2309697 0.373581,-0.2309697 0.07441,0 0.139512,0.020152 z" style="font-weight:bold;font-family:Roboto;-inkscape-font-specification:'Roboto Bold'" id="path5418"/>
				<path d="m 21.439476,8.3583833 q 0,-0.082157 -0.08216,-0.1286609 -0.08061,-0.048054 -0.260422,-0.085257 -0.598351,-0.1255607 -0.598351,-0.5084432 0,-0.223219 0.184466,-0.3720317 0.186016,-0.1503628 0.485191,-0.1503628 0.319328,0 0.509994,0.1503628 0.192216,0.1503628 0.192216,0.3906332 h -0.447988 q 0,-0.096108 -0.062,-0.1581134 -0.06201,-0.063555 -0.193767,-0.063555 -0.113159,0 -0.175165,0.051154 -0.062,0.051154 -0.062,0.1302111 0,0.074406 0.06976,0.1209103 0.07131,0.044954 0.23872,0.079057 0.167415,0.032553 0.282124,0.074406 0.35498,0.130211 0.35498,0.4510883 0,0.2294195 -0.196866,0.3720317 -0.196867,0.1410619 -0.508444,0.1410619 -0.210817,0 -0.375131,-0.074406 -0.162764,-0.075956 -0.255772,-0.2061675 -0.09301,-0.1317612 -0.09301,-0.2836741 h 0.424736 q 0.0062,0.1193601 0.08836,0.1829155 0.08216,0.063555 0.220118,0.063555 0.128661,0 0.193767,-0.048054 0.06666,-0.049604 0.06666,-0.1286609 z" style="font-weight:bold;font-family:Roboto;-inkscape-font-specification:'Roboto Bold'" id="path5420"/>
				<path d="M 22.636178,8.8218727 H 22.18664 V 7.1446301 h 0.449538 z m -0.47589,-2.1112795 q 0,-0.1007586 0.06666,-0.1658641 0.0682,-0.065106 0.184465,-0.065106 0.11471,0 0.182916,0.065106 0.06821,0.065106 0.06821,0.1658641 0,0.1023087 -0.06976,0.1674142 -0.06821,0.065105 -0.181366,0.065105 -0.113159,0 -0.182915,-0.065105 -0.06821,-0.065106 -0.06821,-0.1674142 z" style="font-weight:bold;font-family:Roboto;-inkscape-font-specification:'Roboto Bold'" id="path5422"/>
				<path d="m 23.977042,8.8218727 q -0.031,-0.060455 -0.04495,-0.1503628 -0.162763,0.1813654 -0.423186,0.1813654 -0.24647,0 -0.409234,-0.1426121 -0.161214,-0.1426121 -0.161214,-0.3596306 0,-0.2666226 0.196867,-0.4092348 0.198417,-0.1426121 0.571998,-0.1441622 h 0.206168 v -0.096108 q 0,-0.1162599 -0.06046,-0.1860158 -0.0589,-0.069756 -0.187566,-0.069756 -0.11316,0 -0.178265,0.054255 -0.06356,0.054255 -0.06356,0.1488126 h -0.447988 q 0,-0.1457124 0.08991,-0.2697229 0.08991,-0.1240106 0.254221,-0.1937665 0.164314,-0.071306 0.368932,-0.071306 0.310026,0 0.491392,0.1565634 0.182915,0.1550131 0.182915,0.4371371 v 0.7270119 q 0.0015,0.2387203 0.06666,0.3611807 v 0.026352 z M 23.606561,8.5102962 q 0.09921,0 0.182915,-0.043404 0.08371,-0.044954 0.124011,-0.1193601 V 8.0592079 h -0.167414 q -0.336379,0 -0.358081,0.2325197 l -0.0016,0.026352 q 0,0.083707 0.05891,0.1379617 0.0589,0.054255 0.161214,0.054255 z" style="font-weight:bold;font-family:Roboto;-inkscape-font-specification:'Roboto Bold'" id="path5424"/>
				<path d="m 25.119489,7.1446301 0.01395,0.1937665 q 0.179816,-0.2247692 0.482091,-0.2247692 0.266623,0 0.396834,0.1565634 0.130211,0.1565633 0.133311,0.4681398 V 8.8218727 H 25.697688 V 7.7491815 q 0,-0.1426121 -0.062,-0.2061675 -0.062,-0.065106 -0.206167,-0.065106 -0.189117,0 -0.283675,0.1612137 v 1.182751 H 24.697853 V 7.1446301 Z" style="font-weight:bold;font-family:Roboto;-inkscape-font-specification:'Roboto Bold'" id="path5426"/>
				<path d="M 27.643104,9.2404083 H 27.371831 V 6.5648808 h 0.271273 z" style="fill:#ffffff" id="path5428"/>
			</g>
			<g aria-label="پارسی" id="text2898" style="font-weight:bold;font-size:2.82222px;font-family:'IRANSansWeb(FaNum)';-inkscape-font-specification:'IRANSansWeb(FaNum) Bold';fill:#ffca00;stroke-width:0.264583">
				<path d="m 33.982974,8.194388 q 0,-0.040493 0.01595,-0.076077 0.01472,-0.035585 0.04049,-0.061353 0.02577,-0.026995 0.06135,-0.04172 0.03558,-0.014725 0.07608,-0.014725 h 0.136203 0.0589 q 0.05522,0 0.121478,-0.00491 0.06626,-0.00491 0.127613,-0.015952 0.06135,-0.011043 0.110435,-0.029449 0.05031,-0.019633 0.07362,-0.049082 0.0135,-0.02086 0.0135,-0.056444 0,-0.052763 -0.02577,-0.1251593 -0.02454,-0.072396 -0.0589,-0.1472463 -0.03436,-0.07485 -0.07117,-0.1435651 -0.03558,-0.068715 -0.05767,-0.1141159 L 34.9548,7.1428042 q 0.03804,0.066261 0.07362,0.1570627 0.03558,0.089575 0.06381,0.1852849 0.02822,0.094483 0.0454,0.1865119 0.01718,0.090802 0.01718,0.1582898 0,0.1239322 -0.04417,0.2270046 -0.05154,0.1153429 -0.141111,0.1914202 -0.08957,0.07485 -0.214734,0.1104347 -0.03681,0.00982 -0.09203,0.015952 -0.05522,0.00614 -0.111662,0.00859 -0.05644,0.00368 -0.106753,0.00368 -0.05031,0.00123 -0.07853,0.00123 h -0.177922 -0.01104 q -0.04049,0 -0.07608,-0.014725 -0.03558,-0.014725 -0.06135,-0.04172 -0.02577,-0.025768 -0.04049,-0.061353 -0.01595,-0.035585 -0.01595,-0.076077 z m 0.92397,0.8196709 -0.230685,-0.2306859 -0.23314,0.23314 -0.235594,-0.2368211 0.238048,-0.2368211 0.230686,0.2306858 0.23314,-0.2331399 0.235594,0.2368211 z M 34.677486,8.9134406 34.895901,9.1318559 34.676259,9.3514982 34.457843,9.1330829 Z" id="path5403"/>
				<path d="m 34.1793,8.3882622 q -0.150927,0 -0.258908,-0.038039 Q 33.812412,8.3134112 33.73388,8.2361073 33.6848,8.1870253 33.6578,8.133035 33.63203,8.079045 33.61976,8.0275085 q -0.01104,-0.052763 -0.0135,-0.099391 -0.0012,-0.046628 -0.0012,-0.079758 v -0.018406 q 0.0012,-0.045401 0.0025,-0.1300676 0.0025,-0.085894 0.0025,-0.2012365 0,-0.1153429 -0.0012,-0.2539998 Q 33.60766,7.1059927 33.60146,6.9685628 33.59656,6.8299059 33.58551,6.7022925 33.57571,6.5746791 33.55729,6.480196 l 0.366889,-0.1116617 q 0.01595,0.080985 0.02577,0.1914201 0.0098,0.1092077 0.01595,0.2294588 0.0074,0.1202511 0.0098,0.2417293 0.0037,0.1214781 0.0049,0.2257776 0.0012,0.092029 -0.0074,0.1803767 -0.0074,0.087121 -0.01227,0.1717873 -0.0049,0.08344 0,0.1631979 0.0061,0.078531 0.03436,0.1533815 0.01104,0.028222 0.02699,0.042947 0.01718,0.014725 0.03927,0.022087 0.02209,0.00614 0.04785,0.00736 0.027,0.00123 0.0589,0.00123 h 0.01104 q 0.03927,0 0.07485,0.015952 0.03558,0.015952 0.06135,0.042947 0.02699,0.025768 0.04295,0.061353 0.01595,0.035585 0.01595,0.07485 0,0.040493 -0.01595,0.076077 -0.01595,0.035585 -0.04295,0.061353 -0.02577,0.026995 -0.06135,0.04172 -0.03558,0.014725 -0.07485,0.014725 z" id="path5405"/>
				<path d="m 33.224654,7.488833 q 0.04663,0.1325216 0.08099,0.258908 0.01472,0.055217 0.02945,0.1153429 0.01472,0.058898 0.02577,0.119024 0.01227,0.058899 0.01963,0.11657 0.0074,0.056444 0.0074,0.1055265 0,0.1153429 -0.0319,0.2245505 -0.03068,0.1104347 -0.08835,0.2135071 -0.05644,0.1030724 -0.134976,0.1975554 -0.07853,0.09571 -0.174241,0.1791497 -0.09571,0.08344 -0.204918,0.1546085 -0.109208,0.072396 -0.225777,0.1300676 L 32.304365,8.993199 q 0.08835,-0.044174 0.17915,-0.1006183 0.08957,-0.055217 0.171787,-0.1190241 0.08344,-0.063807 0.154609,-0.1337487 0.0724,-0.069942 0.125159,-0.142338 0.05399,-0.072396 0.08467,-0.1472463 0.03068,-0.073623 0.03068,-0.1447922 0,-0.051536 -0.01472,-0.1116617 Q 33.0222,8.0336437 32.99766,7.9649292 32.97435,7.8949872 32.94121,7.8176829 32.90808,7.7391519 32.87004,7.6508038 Z" id="path5407"/>
				<path d="m 30.339857,8.195615 q 0,-0.038039 0.01472,-0.072396 0.01473,-0.034357 0.03927,-0.060125 0.02454,-0.026995 0.0589,-0.042947 0.03313,-0.017179 0.07117,-0.019633 0.09203,0 0.154608,-0.049082 0.06381,-0.050309 0.109208,-0.1312945 0.0454,-0.080986 0.0773,-0.1840579 0.0319,-0.1042994 0.06013,-0.21228 l 0.326395,0.058898 q -0.0098,0.042947 -0.02454,0.1006183 -0.0135,0.056444 -0.02577,0.117797 -0.01104,0.061353 -0.0184,0.1202511 -0.0074,0.057671 -0.0037,0.1018453 0.0049,0.044174 0.02331,0.069942 0.01841,0.024541 0.05645,0.018406 0.04908,-0.00368 0.08835,-0.034358 0.04049,-0.030676 0.0724,-0.078531 0.0319,-0.047855 0.05644,-0.1079806 0.02454,-0.060126 0.04172,-0.1239323 0.01841,-0.063807 0.02945,-0.1263864 0.01227,-0.06258 0.01963,-0.1141158 l 0.311671,0.052763 q -0.0012,0.036812 -0.0086,0.090802 -0.0074,0.05399 -0.0135,0.1141159 -0.0061,0.058899 -0.0061,0.119024 0,0.058898 0.0135,0.1067536 0.0135,0.046628 0.04417,0.076077 0.0319,0.029449 0.08835,0.029449 0.03436,0 0.06994,-0.011043 0.03558,-0.01227 0.06381,-0.03313 0.02822,-0.022087 0.0454,-0.051536 0.01841,-0.029449 0.01841,-0.066261 0,-0.063807 -0.02086,-0.139884 -0.02086,-0.077304 -0.05031,-0.1521545 -0.02945,-0.076077 -0.06258,-0.1435651 -0.0319,-0.067488 -0.05399,-0.1141158 L 32.310518,7.132988 q 0.0074,0.015952 0.02577,0.056444 0.0184,0.039266 0.04172,0.09571 0.02331,0.056444 0.04786,0.1276134 0.02577,0.069942 0.04663,0.1460192 0.02086,0.076077 0.03436,0.1558357 0.0135,0.079758 0.0135,0.1546085 0,0.1227053 -0.03436,0.2208694 -0.03313,0.098164 -0.101845,0.1668791 -0.06749,0.068715 -0.170561,0.1067536 -0.101845,0.038039 -0.239275,0.039266 -0.06626,0 -0.120251,-0.013498 -0.05399,-0.01227 -0.09694,-0.035584 -0.04295,-0.022087 -0.0773,-0.052763 -0.03313,-0.030676 -0.0589,-0.065034 -0.02945,0.038039 -0.06381,0.068715 -0.03313,0.029449 -0.0773,0.050309 -0.04295,0.022087 -0.09694,0.034357 -0.05399,0.012271 -0.122705,0.013498 -0.06013,0.00123 -0.109208,-0.011043 -0.04785,-0.011044 -0.08835,-0.03313 -0.04049,-0.022087 -0.07362,-0.052763 -0.0319,-0.031903 -0.06012,-0.069942 -0.02577,0.031903 -0.0589,0.060126 -0.03313,0.026995 -0.07853,0.047855 -0.0454,0.02086 -0.105527,0.033131 -0.06012,0.01227 -0.139884,0.01227 h -0.02209 q -0.03804,-0.00245 -0.07117,-0.018406 -0.03436,-0.015952 -0.0589,-0.04172 -0.02454,-0.025768 -0.03927,-0.060125 -0.01472,-0.034358 -0.01472,-0.073623 z" id="path5409"/>
				<path d="m 29.420793,9.1883003 q -0.114116,0 -0.235594,-0.013498 -0.120251,-0.012271 -0.23314,-0.047855 Q 28.840398,9.0913623 28.74346,9.026329 28.64652,8.962522 28.580262,8.8594499 q -0.06258,-0.099391 -0.09694,-0.2184153 -0.03436,-0.1190241 -0.03436,-0.2662704 0,-0.1079805 0.0086,-0.2049177 0.0098,-0.098164 0.02945,-0.1938742 0.01963,-0.09571 0.05031,-0.1938743 0.0319,-0.098164 0.07608,-0.2085988 l 0.315352,0.1312945 q -0.03558,0.088348 -0.06135,0.1595168 -0.02454,0.071169 -0.04172,0.1300676 -0.01718,0.057671 -0.02699,0.1067535 -0.0098,0.049082 -0.01472,0.094483 -0.0049,0.044174 -0.0061,0.088348 -0.0012,0.042947 -0.0012,0.090802 0,0.092029 0.02945,0.1595168 0.02945,0.067488 0.07976,0.1141159 0.05031,0.046628 0.115343,0.076077 0.06626,0.030676 0.13743,0.046628 0.07117,0.015952 0.143565,0.022087 0.07362,0.00614 0.138657,0.00614 0.0319,0 0.09448,-0.00491 0.06258,-0.00368 0.136203,-0.014725 0.07485,-0.00982 0.152155,-0.026995 0.07853,-0.017179 0.142338,-0.042947 0.06381,-0.024541 0.104299,-0.058898 0.04049,-0.03313 0.04049,-0.078531 0,-0.00491 -0.02086,-0.017179 -0.01963,-0.012271 -0.05522,-0.029449 -0.03436,-0.015952 -0.08099,-0.036812 -0.0454,-0.019633 -0.09816,-0.040493 h 0.0012 q -0.0589,-0.018406 -0.123932,-0.031903 -0.06381,-0.01227 -0.126387,-0.022087 -0.0098,-0.00123 -0.02577,-0.00368 -0.01472,-0.00245 -0.03068,-0.00614 -0.01595,-0.00245 -0.0319,-0.00614 -0.01472,-0.00245 -0.02454,-0.00491 l 0.05031,-0.3730239 h 0.984096 q 0.03927,0 0.07485,0.014725 0.03558,0.014725 0.06135,0.04172 0.02699,0.025768 0.04295,0.061353 0.01595,0.035585 0.01595,0.076077 0,0.040493 -0.01595,0.076077 -0.01595,0.035585 -0.04295,0.061353 -0.02577,0.026995 -0.06135,0.04172 -0.03559,0.014725 -0.07485,0.014725 h -0.136203 q 0.02577,0.049082 0.03681,0.098164 0.01227,0.050309 0.0135,0.085894 -0.0061,0.1153429 -0.0589,0.2049177 -0.05154,0.090802 -0.133748,0.1595168 -0.08221,0.068715 -0.186512,0.1165699 -0.1043,0.047855 -0.213507,0.077304 -0.109208,0.030676 -0.215962,0.044174 -0.105526,0.013498 -0.192647,0.013498 z" id="path5411"/>
			</g>
		</g>
		<g id="g2708" transform="matrix(0.06650926,0,0,0.06650926,1.5562307,-1.5512124)" style="display:inline">
			<rect class="cls-1" x="74.879997" y="68.419998" width="24.09" height="50.02" id="rect2674" style="fill:#7897ed;fill-opacity:1"/>
			<rect class="cls-1" x="74.879997" y="171.17" width="24.09" height="50.02" id="rect2676" style="fill:#7897ed;fill-opacity:1"/>
			<rect class="cls-2" x="74.879997" y="133.03999" width="24.09" height="23.6" id="rect2678"/>
			<rect class="cls-1" x="36.189999" y="109.55" width="24.09" height="166.27" id="rect2680" style="fill:#7897ed;fill-opacity:1"/>
			<rect class="cls-1" x="112.78" y="212.44" width="24.09" height="50.02" id="rect2682" style="fill:#7897ed;fill-opacity:1"/>
			<rect class="cls-1" x="112.78" y="109.61" width="24.09" height="50.02" id="rect2684" style="fill:#7897ed;fill-opacity:1"/>
			<rect class="cls-3" x="112.78" y="174.23" width="24.09" height="23.6" id="rect2686"/>
			<rect class="cls-1" x="150.67" y="55.389999" width="24.09" height="166.27" id="rect2688" style="fill:#7897ed;fill-opacity:1"/>
		</g>
	</g>
</svg>
